<?xml version="1.0" encoding="UTF-8" standalone="no"?>
<svg
   viewBox="0 0 512 512"
   style=""
   height="512px"
   width="512px"
   version="1.1"
   id="svg6"
   sodipodi:docname="concealment.svg"
   inkscape:version="1.1.1 (3bf5ae0d25, 2021-09-20)"
   xmlns:inkscape="http://www.inkscape.org/namespaces/inkscape"
   xmlns:sodipodi="http://sodipodi.sourceforge.net/DTD/sodipodi-0.dtd"
   xmlns="http://www.w3.org/2000/svg"
   xmlns:svg="http://www.w3.org/2000/svg">
  <defs
     id="defs10" />
  <sodipodi:namedview
     id="namedview8"
     pagecolor="#505050"
     bordercolor="#ffffff"
     borderopacity="1"
     inkscape:pageshadow="0"
     inkscape:pageopacity="0"
     inkscape:pagecheckerboard="1"
     showgrid="false"
     inkscape:zoom="2.3886719"
     inkscape:cx="256.41864"
     inkscape:cy="256"
     inkscape:window-width="3840"
     inkscape:window-height="2058"
     inkscape:window-x="-11"
     inkscape:window-y="-11"
     inkscape:window-maximized="1"
     inkscape:current-layer="svg6" />
  <g
     id="g1099"
     transform="translate(-8.625,58.714004)">
    <path
       style="fill:#ffffff"
       d="m 409.95765,234.66672 c -21.1,0 -61.9,17 -61.9,17 0,0 16.6,6.9 34,11.9 -35.6,2.2 -92,16.7 -92,16.7 0,0 66.2,17 100.4,17 34.1,0 100.4,-17 100.4,-17 0,0 -33.7,-8.6 -65.4,-13.6 21.1,-4.5 46.5,-15 46.5,-15 0,0 -40.9,-17 -62,-17 z"
       id="path835" />
    <path
       style="fill:#ffffff"
       d="m 95.33,226.8 c -21.1,0 -61.88,25.7 -61.88,25.7 0,0 40.78,25.6 61.88,25.6 21.17,0 62.07,-25.6 62.07,-25.6 0,0 -40.9,-25.7 -62.07,-25.7 z"
       id="path831" />
    <path
       style="fill:#ffffff"
       d="m 153.2,141.8 c -34.2,0 -100.46,17 -100.46,17 0,0 66.26,17 100.46,17 19.4,0 49.3,-5.5 71.5,-10.3 -15.4,7.4 -26.5,13.6 -26.5,13.6 0,0 9.1,5.1 22.2,11.5 -35.1,3.9 -80.9,15.7 -80.9,15.7 0,0 66.2,17 100.4,17 15.1,0 36.6,-3.4 55.9,-7.1 0.9,0.1 1.9,0.1 2.8,0.1 23.9,0 63.4,-18.2 85.1,-29.1 4.2,0.3 8.1,0.5 11.7,0.5 34.1,0 100.4,-17 100.4,-17 0,0 -66.3,-17 -100.4,-17 -11,0 -25.4,1.8 -39.7,4.2 -19.6,-8.4 -41.6,-16.1 -57.1,-16.1 -14.7,0 -35.4,6.9 -54.1,14.8 -19.1,-4.6 -64.8,-14.8 -91.3,-14.8 z"
       id="path827" />
    <path
       style="fill:#ffffff"
       d="m 320.9,84.7 c -34.2,0 -100.4,17 -100.4,17 0,0 66.2,17 100.4,17 34.1,0 100.4,-17 100.4,-17 0,0 -66.3,-17 -100.4,-17 z"
       id="path825" />
  </g>
</svg>
