<?xml version="1.0" encoding="UTF-8" standalone="no"?>
<svg
   viewBox="0 0 512 512"
   style="height: 512px; width: 512px;"
   height="512px" width="512px"
   version="1.1"
   id="svg1"
   xmlns="http://www.w3.org/2000/svg"
   xmlns:svg="http://www.w3.org/2000/svg">
  <path
     id="path21-1"
     style="fill:#ffffff"
     d="M 335.01758 117.91992 L 297.80078 131.52539 L 291.5 276.52539 L 357.80078 275.02539 L 364.19922 132.22461 L 335.01758 117.91992 z M 221.80859 152.52539 L 177 159.625 L 172 279.22461 L 245.80078 277.52539 L 249.09961 163.22461 L 235.30273 159.625 L 225.69336 193.72461 L 221.80859 152.52539 z M 421.30078 161.82617 L 401.40039 274.02539 L 455.19922 272.72461 L 473 182.82617 L 438.40039 191.625 L 421.30078 161.82617 z M 89.630859 191.26172 L 48.589844 204.625 L 58.669922 281.82617 L 130.59961 280.22461 L 115.5 191.92578 L 89.630859 191.26172 z M 478.40039 290.22461 L 33.800781 300.42578 L 30.019531 344.625 L 482 342.52539 L 480.90039 326.625 L 448.40039 316.22461 C 448.40039 316.22461 467.1008 312.825 479.80078 310.625 L 478.40039 290.22461 z M 437.69922 360.82617 L 386 361.02539 L 382.80078 379.125 L 434.40039 377.52539 L 437.69922 360.82617 z M 354 361.125 L 287.90039 361.42578 L 287 382.32617 L 353.19922 380.125 L 354 361.125 z M 243.5 361.625 L 168.5 361.92578 L 167.5 386.22461 L 242.90039 383.72461 L 243.5 361.625 z M 144.59961 362.02539 L 69.169922 362.32617 L 72.679688 389.32617 L 148.80078 386.82617 L 144.59961 362.02539 z M 489.90039 393.625 L 22.070312 408.92578 L 22.310547 434.82617 L 51.310547 449.42578 L 483.80078 448.02539 L 489.90039 393.625 z M 417.05664 466.19141 L 368.03516 466.34961 L 363.82617 491.03125 L 412.19141 491.03125 L 417.05664 466.19141 z M 348.02539 466.41406 L 283.86914 466.62305 L 282.93359 491.03125 L 346.62891 491.03125 L 348.02539 466.41406 z M 240.0625 466.76367 L 179.76367 466.95898 L 183.66016 491.03125 L 239.26953 491.03125 L 240.0625 466.76367 z M 161.58984 467.01758 L 82.572266 467.27344 L 85.605469 491.03125 L 165.47656 491.03125 L 161.58984 467.01758 z " />
</svg>
