<?xml version="1.0" encoding="UTF-8"?>
<svg style="height:512px;width:512px" height="512px" width="512px" version="1.1" viewBox="0 0 512 512" xmlns="http://www.w3.org/2000/svg">
 <path d="m373.77 42.58c-15.476-0.073-32.25 4.3204-48.15 13.15-18.172 10.09-32.025 24.21-39.816 39.635-4.937 9.773-7.4192 20.355-6.5332 30.48-142.23 35.935-140.19 127.28-148.97 212-8.83 85.21 31.418 103.06 84.02 110.18-75.802-1.733-65.733-0.49628-113.79-0.36328 0 0-45.96 45.959-49.496 48.789 52.562-2.26 344.12 23.87 345.28-31.32 0.793-37.823-78.185-55.175-135.84-74.975-21.276-7.306-29.621-92.503-0.20117-169.12 20.044 61.258 65.636 140.04 87.248 143.89 24.542 0.21599 82.012-121.9 113.44-166.68-28.153-15.767-62.88 16.396-77.355 40.234 0.612 13.085 1.6094 31.267 5.5684 35.201l-40.947 42.312c-26.15-43.612-43.327-105.71-50.621-158.75-0.257 0.126-0.498 0.25582-0.75 0.38282 0.185-0.22 0.38136-0.43721 0.56836-0.65821 7.89 5.473 17.615 8.6406 27.896 9.5606 17.213 1.542 36.524-2.7498 54.697-12.84 18.172-10.09 32.026-24.215 39.818-39.641 7.79-15.426 9.4785-32.862 1.4355-47.348-8.042-14.485-23.736-22.271-40.949-23.812a77.164 77.164 0 0 0-6.5469-0.30469h-0.00195z" fill="#fff"/>
</svg>
