<?xml version="1.0" standalone="no"?>
<!DOCTYPE svg PUBLIC "-//W3C//DTD SVG 20010904//EN"
 "http://www.w3.org/TR/2001/REC-SVG-20010904/DTD/svg10.dtd">
<svg version="1.0" xmlns="http://www.w3.org/2000/svg"
 width="980.000000pt" height="980.000000pt" viewBox="0 0 980.000000 980.000000"
 preserveAspectRatio="xMidYMid meet">

<g transform="translate(0.000000,980.000000) scale(0.100000,-0.100000)"
fill="#ffffff" stroke="none">
<path d="M3154 9785 c-219 -39 -398 -131 -548 -280 -408 -405 -403 -1062 11
-1455 151 -144 339 -238 537 -270 121 -20 331 -8 441 24 109 32 212 80 297
137 81 54 213 186 267 267 334 496 181 1163 -335 1457 -199 114 -454 160 -670
120z"/>
<path d="M2915 7444 c-219 -32 -403 -122 -550 -269 -100 -99 -160 -199 -188
-310 -54 -212 -219 -1364 -296 -2060 -54 -492 -64 -608 -65 -805 l-1 -195 33
-94 c18 -52 49 -122 69 -155 76 -124 211 -225 348 -259 250 -63 1491 -78 2583
-32 110 5 132 4 132 -8 0 -17 -175 -523 -290 -837 -108 -294 -316 -834 -480
-1244 -145 -365 -160 -411 -160 -507 0 -226 171 -409 433 -463 217 -45 427 13
573 159 38 38 82 91 97 117 29 51 311 753 482 1203 348 915 698 1969 712 2147
19 245 -123 450 -377 543 -90 32 -229 44 -560 45 l-215 1 69 37 c284 151 390
477 233 714 -20 30 -145 158 -285 291 -491 468 -973 997 -1425 1564 -109 136
-154 184 -219 234 -93 70 -230 138 -328 164 -63 16 -263 28 -325 19z m1387
-2547 c319 -317 418 -406 493 -445 l40 -21 -208 -1 c-207 0 -999 19 -1005 24
-5 6 91 826 115 980 l6 39 120 -129 c66 -71 263 -272 439 -447z"/>
<path d="M10 4720 l0 -1450 235 0 235 0 0 1450 0 1450 -235 0 -235 0 0 -1450z"/>
<path d="M10 2655 l0 -235 235 0 235 0 0 -1210 0 -1210 819 0 820 0 5 53 c3
28 8 84 12 122 23 258 155 476 344 569 80 39 186 66 262 66 61 0 328 68 444
113 422 163 695 429 818 798 54 160 69 280 63 483 -3 94 -8 181 -12 194 -7 22
-6 22 89 22 l96 0 0 235 0 235 -2115 0 -2115 0 0 -235z"/>
</g>
</svg>
