<?xml version="1.0" encoding="iso-8859-1"?>
<!-- Generator: Adobe Illustrator 18.1.1, SVG Export Plug-In . SVG Version: 6.00 Build 0)  -->
<svg version="1.1" id="Capa_1" xmlns="http://www.w3.org/2000/svg" xmlns:xlink="http://www.w3.org/1999/xlink" x="0px" y="0px"
	 viewBox="0 0 497 497" style="enable-background:new 0 0 497 497;" xml:space="preserve">
<g>
	<g>
		<path style="fill:#ffffff;" d="M245.218,136.226c37.62,0,68.112-30.496,68.112-68.115C313.33,30.496,282.838,0,245.218,0
			c-37.618,0-68.114,30.496-68.115,68.111C177.104,105.729,207.601,136.226,245.218,136.226z"/>
		<path style="fill:#ffffff;" d="M442.695,403.289H335.84c-9.49,0-17.188,7.688-17.188,17.172v59.367
			c0,9.48,7.695,17.172,17.188,17.172h106.855c9.488,0,17.193-7.688,17.193-17.172v-59.367
			C459.883,410.979,452.186,403.289,442.695,403.289z"/>
		<path style="fill:#ffffff;" d="M327.492,384.315c38.104,15.737,69.297,23.137,93.418,2.579
			c25.465-22.27,27.764-56.494,16.9-88.734l-50.969-144.049c-9.955-29.938-42.648-41.22-69.137-39.052l-0.215,0.023
			c0,0-9.291,1.083-17.164,3.498c-8.213,2.538-15.115,7.38-15.115,7.38c-5.609,3.536-11.049,8.016-15.902,13.185
			c-5.283,5.15-10.469,10.285-15.396,15.239c-30.813,30.927-46.583,46.64-70.106,40.415c0,0-0.207-0.051-0.585-0.157L201.83,180.9
			c1.049-0.775,1.739-1.94,1.915-3.231c0.176-1.292-0.18-2.6-0.984-3.625l-72.153-92.021c-1.64-2.092-4.662-2.464-6.759-0.831
			l-18.337,14.272L83.307,69.783c-1.058-1.224-2.659-1.837-4.263-1.63c-1.604,0.206-2.997,1.203-3.713,2.653l-37.723,76.639
			c-0.861,1.75-0.584,3.846,0.703,5.312l67.4,76.818l8.723,10.272c1.451,1.708,3.85,2.167,5.795,1.212
			c0.258-0.126,0.509-0.278,0.747-0.454l7.678-5.67c7.07,3.941,13.458,6.98,19.045,9.308c17.098,8.137,32.561,11.605,46.721,11.605
			c26.667,0,48.731-12.208,68.497-28.333l21.533,55.543c-36.768-14.282-70.115-20.983-94.968-1.248
			c-36.517,28.97-67.063,126.067-78.5,166.471c-5.697,20.13,5.994,41.085,26.136,46.785c3.455,0.972,6.934,1.457,10.358,1.457
			c16.518,0,31.706-10.896,36.44-27.58c14.68-51.779,36.135-105.339,48.797-123.148c6.132,1.181,14.977,4.27,24.487,8.035
			c-18.228,25.563-27.749,48.058-46.998,95.384c-7.149,17.58,1.31,37.61,18.894,44.775c4.237,1.727,8.605,2.534,12.928,2.534
			c13.57,0,26.428-8.081,31.852-21.426c19.592-48.148,25.805-65.093,46.791-93.721L327.492,384.315z M80.771,81.599l17.118,19.798
			l-43.542,33.885L80.771,81.599z"/>
	</g>
</g>
<g>
</g>
<g>
</g>
<g>
</g>
<g>
</g>
<g>
</g>
<g>
</g>
<g>
</g>
<g>
</g>
<g>
</g>
<g>
</g>
<g>
</g>
<g>
</g>
<g>
</g>
<g>
</g>
<g>
</g>
</svg>
