<?xml version="1.0" encoding="UTF-8" standalone="no"?>
<!-- Svg Vector Icons : http://www.onlinewebfonts.com/icon -->

<svg
   version="1.1"
   x="0px"
   y="0px"
   viewBox="0 0 1000 1000"
   enable-background="new 0 0 1000 1000"
   xml:space="preserve"
   id="svg10"
   sodipodi:docname="sword.svg"
   inkscape:version="1.2 (dc2aedaf03, 2022-05-15)"
   xmlns:inkscape="http://www.inkscape.org/namespaces/inkscape"
   xmlns:sodipodi="http://sodipodi.sourceforge.net/DTD/sodipodi-0.dtd"
   xmlns="http://www.w3.org/2000/svg"
   xmlns:svg="http://www.w3.org/2000/svg"><defs
   id="defs14" /><sodipodi:namedview
   id="namedview12"
   pagecolor="#ffffff"

/>
<metadata
   id="metadata2"> Svg Vector Icons : http://www.onlinewebfonts.com/icon </metadata>
<g
   id="g8"
   transform="rotate(-90,500.00422,500.0011)"><g
     transform="matrix(0.1,0,0,-0.1,0,511)"
     id="g6"><path
       d="M 485.7,4902.4 C 334.8,4856.7 174,4707.8 126.3,4570.8 c -59.6,-174.7 -15.9,-391.1 109.2,-538 81.4,-95.3 250.2,-170.7 387.1,-170.7 61.5,0 129,6 150.9,11.9 33.8,9.9 133,-103.2 615.5,-692.9 317.7,-387.1 591.6,-726.6 611.5,-754.4 l 37.7,-47.6 -589.7,-597.6 -591.6,-597.6 137,-137 c 75.4,-75.4 144.9,-137 154.9,-137 65.5,0 980.8,665.1 1238.9,897.4 47.7,43.7 93.3,75.4 101.3,71.5 9.9,-4 673,-649.2 1473.1,-1435.4 802,-786.3 1895.9,-1858.4 2430,-2380.6 536,-524.1 1223,-1199.1 1528.7,-1502.9 420.9,-414.9 599.6,-577.7 734.6,-667.1 329.6,-218.4 788.2,-460.6 1048.3,-551.9 133,-47.7 158.8,-51.6 182.7,-27.8 23.8,23.8 19.9,49.6 -37.7,186.6 -127.1,307.7 -321.6,663.1 -547.9,1002.6 -103.2,152.9 -311.7,363.3 -2273.2,2283.1 C 5550.3,232.8 5069.8,705.3 3813.1,1938.2 l -651.2,641.3 51.6,63.5 c 315.7,391.1 905.3,1232.9 905.3,1292.5 0,11.9 -61.5,83.4 -135,156.8 l -137,135 -593.6,-605.5 -593.6,-605.5 -754.4,595.6 -754.4,595.6 6,127.1 c 9.9,178.7 -37.7,311.7 -152.9,426.9 -135.1,134.9 -345.5,192.5 -518.2,140.9 z"
       id="path4" /></g></g>
</svg>
