<?xml version="1.0" encoding="UTF-8" standalone="no"?>
<!-- Created with Inkscape (http://www.inkscape.org/) -->

<svg
   width="32"
   height="32"
   viewBox="0 0 768 768"
   version="1.1"
   id="svg1"
   xml:space="preserve"
   inkscape:version="1.3.2 (091e20e, 2023-11-25, custom)"
   sodipodi:docname="burst.svg"
   xmlns:inkscape="http://www.inkscape.org/namespaces/inkscape"
   xmlns:sodipodi="http://sodipodi.sourceforge.net/DTD/sodipodi-0.dtd"
   xmlns="http://www.w3.org/2000/svg"
   xmlns:svg="http://www.w3.org/2000/svg"><sodipodi:namedview
     id="namedview1"
     pagecolor="#ffffff"
     bordercolor="#000000"
     borderopacity="0.25"
     inkscape:showpageshadow="2"
     inkscape:pageopacity="0.0"
     inkscape:pagecheckerboard="0"
     inkscape:deskcolor="#d1d1d1"
     inkscape:document-units="px"
     inkscape:zoom="16.388212"
     inkscape:cx="7.5664142"
     inkscape:cy="19.129604"
     inkscape:window-width="1920"
     inkscape:window-height="1009"
     inkscape:window-x="-8"
     inkscape:window-y="-8"
     inkscape:window-maximized="1"
     inkscape:current-layer="layer1" /><defs
     id="defs1"><inkscape:path-effect
       effect="copy_rotate"
       starting_point="504.44876,384"
       origin="384,384"
       id="path-effect25"
       is_visible="true"
       lpeversion="1.2"
       lpesatellites=""
       method="normal"
       num_copies="6"
       starting_angle="0"
       rotation_angle="60"
       gap="-0.01"
       copies_to_360="true"
       mirror_copies="false"
       split_items="false"
       link_styles="false" /><marker
       markerWidth="6.89197063"
       markerHeight="10.48343549"
       refX="3.4459855"
       refY="5.2417177"
       orient="auto"
       id="marker24"
       viewBox="0 0 6.89197051 10.4834353"
       preserveAspectRatio="xMidYMid"><path
         style="fill:#c9c7b8;fill-opacity:1;stroke:#c9c7b8;stroke-width:0.293703;stroke-opacity:1;paint-order:normal"
         d="M 2.9436134,10.336584 H 3.9436131 L 4.4436133,5.0438565 4.9476132,4.8712672 6.5186132,5.7342129 3.5192951,0.29901526 0.38961339,5.7342129 1.9396133,4.8801915 2.4436131,5.0638084 Z"
         id="path2-9"
         sodipodi:nodetypes="cccccccccc" /></marker></defs><g
     inkscape:label="Layer 1"
     inkscape:groupmode="layer"
     id="layer1"><ellipse
       style="display:inline;fill:#c9c7b8;fill-opacity:1;stroke:#c9c7b8;stroke-width:6.44303;stroke-opacity:1"
       id="path1"
       cx="384"
       cy="384"
       rx="84.778481"
       ry="84.778488" /><path
       style="display:inline;fill:#c9c7b8;fill-opacity:1;stroke:#c9c7b8;stroke-width:7.04882;stroke-opacity:1;paint-order:normal"
       d="m 512.23012,372 v 24 l 127.02444,12 4.14211,12.0959 -20.71053,37.7037 130.4437,-71.98306 -130.4437,-75.11176 20.49635,37.1997 -4.40677,12.0959 z m -74.51049,-105.05001 20.78444,12 73.90445,-104.00644 12.54641,2.46078 22.2971,36.78769 2.88269,-148.959083 -130.27054,75.411673 42.46406,0.84949 8.27197,9.86433 z m -128.23122,12.00297 20.78444,-12 -53.11999,-116.00635 8.4043,-9.63512 43.00762,-0.91601 -127.561,-76.976023 0.17315,150.523433 21.96771,-36.35021 12.67875,-2.23157 z m -53.72073,117.05298 v -24 l -127.02444,-12 -4.14211,-12.0959 20.71053,-37.7037 -130.443702,71.98306 130.443702,75.11176 -20.49635,-37.1997 4.40677,-12.0959 z m 74.51049,105.05001 -20.78444,-12 -73.90445,104.00644 -12.54641,-2.46078 -22.2971,-36.78769 -2.88269,148.95908 130.27054,-75.41167 -42.46406,-0.84949 -8.27197,-9.86433 z m 128.23122,-12.00297 -20.78444,12 53.11999,116.00635 -8.4043,9.63512 -43.00762,0.91601 127.561,76.97602 -0.17315,-150.52343 -21.96771,36.35021 -12.67875,2.23157 z"
       id="path24"
       sodipodi:nodetypes="cccccccccc"
       inkscape:path-effect="#path-effect25"
       inkscape:original-d="m 512.23012,372 v 24 l 127.02444,12 4.14211,12.0959 -20.71053,37.7037 130.4437,-71.98306 -130.4437,-75.11176 20.49635,37.1997 -4.40677,12.0959 z" /></g></svg>
