<?xml version="1.0" encoding="UTF-8" standalone="no"?>
<svg
   version="1.1"
   viewBox="0 0 31.87879 44"
   id="svg6"
   width="31.87879"
   height="44"
   xmlns="http://www.w3.org/2000/svg"
   xmlns:svg="http://www.w3.org/2000/svg">
  <defs
     id="defs10" />
  <g
     class=""
     id="g4"
     transform="matrix(0.08658009,0,0,0.08658009,-6.2251085,-0.16450225)"
     style="fill:#c9c7b8;fill-opacity:1">
    <path
       d="M 95,25 V 487 H 417 V 25 Z m 193,18 h 80 V 61 H 288 Z M 114,83 h 284 v 84 H 114 Z m 22,46 v 18 h 88 v -18 z m -22,54 h 58 v 58 h -58 z m 76,0 h 58 v 58 h -58 z m 74,0 h 58 v 58 h -58 z m 76,0 h 58 v 58 h -58 z m -208,18 v 22 h 22 v -22 z m 76,0 v 22 h 22 v -22 z m 74,0 v 22 h 22 v -22 z m 76,0 v 22 h 22 v -22 z m -244,56 h 58 v 58 h -58 z m 76,0 h 58 v 58 h -58 z m 74,0 h 58 v 58 h -58 z m 76,0 h 58 v 58 h -58 z m -208,18 v 22 h 22 v -22 z m 76,0 v 22 h 22 v -22 z m 74,0 v 22 h 22 v -22 z m 76,0 v 22 h 22 v -22 z m -244,56 h 58 v 58 h -58 z m 76,0 h 58 v 58 h -58 z m 74,0 h 58 v 58 h -58 z m 76,0 h 58 v 132 h -58 z m -208,18 v 22 h 22 v -22 z m 76,0 v 22 h 22 v -22 z m 74,0 v 22 h 22 v -22 z m 76,0 v 96 h 22 v -96 z m -244,56 h 58 v 58 h -58 z m 76,0 h 58 v 58 h -58 z m 74,0 h 58 v 58 h -58 z m -132,18 v 22 h 22 v -22 z m 76,0 v 22 h 22 v -22 z m 74,0 v 22 h 22 v -22 z"
       id="path2"
       style="fill:#c9c7b8;fill-opacity:1" />
  </g>
</svg>
