<?xml version="1.0" encoding="UTF-8"?>
<svg id="Layer_1" xmlns="http://www.w3.org/2000/svg" version="1.1" viewBox="0 0 2048 2048">
  <!-- Generator: Adobe Illustrator 29.8.2, SVG Export Plug-In . SVG Version: 2.1.1 Build 3)  -->
  <defs>
    <style>
      .st0 {
        fill: #fff;
      }

      .st1 {
        fill: none;
        stroke: #231f20;
        stroke-miterlimit: 10;
      }
    </style>
  </defs>
  <path class="st0" d="M1837.63,1755.21c-20.66-45.33-41.34-90.67-62-136-17.66-37-35.33-74-53-111-120.65-260.31-241.35-520.69-362-781-33.66-71.33-67.34-142.67-101-214-40.46-92.11-83.29-183.14-127-273-19.21-39.49-22.32-81.67-82-82-6.91,3.97-14.96,4.54-21,9-21.12,15.6-45.63,83.05-60,110-42.92,80.48-82,163.37-124,245-159.98,315.64-320.02,631.36-480,947-51.33,101.66-102.67,203.34-154,305-17.59,34.29-44.33,88.06,7,109,11.23,4.58,28.85,3,44,3h89c99.66-.33,199.34-.67,299-1,286.3.33,572.7.67,859,1h263c35.4,4.21,81.62,1.98,95-30,13.21-31.6-19.42-79.23-30-101ZM1444.63,1621.21h-811c140.99-289.64,282.01-579.36,423-869,129.32,288.97,258.68,578.03,388,867v2Z"/>
  <path class="st1" d="M1837.63,1755.21c-20.66-45.33-41.34-90.67-62-136-17.66-37-35.33-74-53-111-120.65-260.31-241.35-520.69-362-781-33.66-71.33-67.34-142.67-101-214-40.46-92.11-83.29-183.14-127-273-19.21-39.49-22.32-81.67-82-82-6.91,3.97-14.96,4.54-21,9-21.12,15.6-45.63,83.05-60,110-42.92,80.48-82,163.37-124,245-159.98,315.64-320.02,631.36-480,947-51.33,101.66-102.67,203.34-154,305-17.59,34.29-44.33,88.06,7,109,11.23,4.58,28.85,3,44,3h89c99.66-.33,199.34-.67,299-1,286.3.33,572.7.67,859,1h263c35.4,4.21,81.62,1.98,95-30,13.21-31.6-19.42-79.23-30-101ZM1444.63,1621.21h-811c140.99-289.64,282.01-579.36,423-869,129.32,288.97,258.68,578.03,388,867v2Z"/>
</svg>