<?xml version="1.0" encoding="UTF-8"?>
<svg style="height:512px;width:512px" width="512" height="512" version="1.1" viewBox="0 0 512 512" xmlns="http://www.w3.org/2000/svg">
 <path d="m194.47 17.086c-26.106 58.539-43.036 101.69-65.748 131.85-12.716 16.888-37.822 50.362-51.523 61.553-54.142 44.221-62.679 89.749-36.918 117.81 51.161 55.735 49.352 2.9674 146.55 121.61 18.234 22.54 36.835 36.783 79.672 36.207 0.05287-7.1e-4 0.09567-0.00895 0.14843-0.00976-41.904 0.26887-60.348-13.889-78.395-36.197-97.197-118.64-95.388-65.872-146.55-121.61-25.761-28.064-17.224-73.591 36.918-117.81 13.701-11.191 38.807-44.664 51.523-61.553 22.712-30.164 39.64-73.311 65.746-131.85h-1.4238zm28.346 0c-26.106 58.539-43.036 101.69-65.748 131.85-12.716 16.888-37.822 50.362-51.523 61.553-54.142 44.221-62.679 89.749-36.918 117.81 51.161 55.735 49.352 2.9674 146.55 121.61 18.234 22.54 36.835 36.783 79.672 36.207 0.30617-0.00411 0.55708-0.05129 0.85937-0.05859-37.663-1.0924-55.152-14.947-72.303-36.148-97.197-118.64-95.388-65.872-146.55-121.61-25.761-28.064-17.224-73.591 36.918-117.81 13.701-11.191 38.807-44.664 51.523-61.553 22.712-30.164 39.642-73.311 65.748-131.85h-8.2285zm35.15 0c-26.106 58.539-43.036 101.69-65.748 131.85-12.716 16.888-37.822 50.362-51.523 61.553-54.142 44.221-62.681 89.749-36.92 117.81 51.161 55.735 49.354 2.9674 146.55 121.61 18.234 22.54 36.835 36.783 79.672 36.207 1.0946-0.01472 2.027-0.15812 3.0723-0.21289-35.519-1.7545-52.556-15.388-69.225-35.994-97.197-118.64-95.388-65.872-146.55-121.61-25.761-28.064-17.224-73.591 36.918-117.81 13.701-11.191 38.807-44.664 51.523-61.553 22.712-30.164 39.64-73.311 65.746-131.85h-13.518zm40.439 0c-26.106 58.539-43.036 101.69-65.748 131.85-12.716 16.888-37.822 50.362-51.523 61.553-54.142 44.221-62.679 89.749-36.918 117.81 51.161 55.735 49.352 2.9674 146.55 121.61 18.234 22.54 36.835 36.783 79.672 36.207 3.8046-0.05117 7.2113-0.41748 10.424-0.92578-29.667-3.4449-45.213-16.449-60.447-35.281-97.197-118.64-95.388-65.872-146.55-121.61-25.761-28.064-17.224-73.591 36.918-117.81 13.701-11.191 38.807-44.664 51.523-61.553 22.712-30.164 39.642-73.311 65.748-131.85h-29.648zm56.568 0c-26.106 58.539-43.035 101.69-65.746 131.85-12.716 16.888-37.822 50.362-51.523 61.553-54.142 44.221-62.681 89.749-36.92 117.81 51.161 55.735 49.354 2.9674 146.55 121.61 18.234 22.54 36.835 36.783 79.672 36.207 50.226-0.6755 48.311-44.437 8.623-45.406-14.007-12.719-59.246-128.75-66.975-169-2.0975-40.353 69.889-125.38 126.26-197.29v-57.338h-13.588-126.35z" fill="#fff" style="paint-order:markers stroke fill"/>
</svg>
