<svg version="1.1" id="Layer_1" xmlns="http://www.w3.org/2000/svg" xmlns:xlink="http://www.w3.org/1999/xlink" x="0px" y="0px"
	 width="100%" viewBox="0 0 1024 1024" enable-background="new 0 0 1024 1024" xml:space="preserve">
    <rect width="100%" height="100%" fill="gray"/>

	<path fill="white"
		d="
	M633.562866,470.576447 
		C597.192749,503.412537 561.101807,536.031067 524.986511,568.622681 
		C489.861237,600.320923 454.745575,632.030090 419.509399,663.604675 
		C416.547058,666.259155 416.198151,668.100037 418.307770,671.497070 
		C438.435059,703.907104 458.389862,736.424316 478.396179,768.909424 
		C482.309082,775.263000 482.302887,775.250488 477.087463,780.438660 
		C473.425049,784.081848 469.645691,787.623474 466.197327,791.460876 
		C463.429840,794.540894 461.458191,794.405945 458.523499,791.449219 
		C431.522888,764.246521 404.320221,737.244080 377.371948,709.989990 
		C374.049774,706.630127 372.040436,706.411072 368.552917,709.591370 
		C346.520233,729.682983 324.312500,749.582520 302.172180,769.556213 
		C291.410431,779.264893 280.716858,789.049988 269.884521,798.679077 
		C267.294403,800.981628 266.325073,803.508301 266.295990,806.958984 
		C266.081177,832.445496 246.618652,852.563354 220.586945,852.861084 
		C193.350845,853.172485 175.850815,832.440491 173.567932,811.172546 
		C170.452438,782.147888 193.856415,759.020630 219.398315,759.670349 
		C222.209274,759.741882 224.532928,759.218384 226.535568,756.992615 
		C256.401764,723.798889 286.277527,690.613464 316.284088,657.546814 
		C319.376404,654.139160 319.494720,652.101074 316.074280,648.716003 
		C289.187286,622.106995 262.510193,595.285828 235.763855,568.534668 
		C230.878128,563.648071 230.864731,563.654175 235.691772,558.827148 
		C239.697906,554.821045 243.832169,550.934509 247.680969,546.782898 
		C249.963379,544.320923 251.811584,544.421692 254.571960,546.128967 
		C286.736603,566.023132 318.950439,585.838257 351.214325,605.571167 
		C360.542023,611.276123 358.258881,610.739014 364.479309,603.885986 
		C399.977234,564.777649 435.303741,525.513733 470.691559,486.305481 
		C502.396881,451.177307 534.116455,416.061981 565.811279,380.924377 
		C612.905762,328.714355 659.996521,276.501007 707.034546,224.240204 
		C709.582336,221.409454 712.470764,219.656448 716.092529,218.460510 
		C759.415222,204.154922 802.692139,189.710632 845.985413,175.315994 
		C847.697632,174.746704 849.454041,174.310730 851.140747,173.826721 
		C852.827271,176.154236 851.395752,177.983276 850.815002,179.731491 
		C836.384583,223.176224 821.859924,266.589722 807.472778,310.048767 
		C806.273254,313.672241 804.446106,316.539490 801.627380,319.071533 
		C762.586792,354.140839 723.586182,389.254761 684.603882,424.388794 
		C667.646851,439.671783 650.753662,455.025513 633.562866,470.576447 
	z"/>
</svg>